<svg xmlns="http://www.w3.org/2000/svg" viewBox="0 0 537.52 780.64"><defs><style>.cls-1{fill-rule:evenodd;}.cls-2{fill:#ec1c24;}</style></defs><g id="Layer_2" data-name="Layer 2"><g id="Layer_1-2" data-name="Layer 1"><path d="M469.05,342.14A157.05,157.05,0,0,0,483.78,246l-2.26-13.72L387,285a60,60,0,0,0,1.54-13.56c0-1.74-.07-3.47-.22-5.18l84.63-61-11.43-15.85-78.62,56.66a59.28,59.28,0,0,0-5.5-9.37l69.41-69.4L433,153.52l-69.4,69.4a60,60,0,0,0-9.37-5.49l56.66-78.62L395,127.38,334,212c-1.71-.15-3.44-.23-5.18-.23a59.79,59.79,0,0,0-13.54,1.55L368,118.77l-13.72-2.26A157,157,0,1,0,469.05,342.14ZM328.82,231.32a40.14,40.14,0,1,1-35.08,20.61h0l.17-.31A40.14,40.14,0,0,1,328.82,231.32Zm-21.31,176a137.49,137.49,0,0,1,29.54-273.07L277,241.75a59.71,59.71,0,0,0,80.86,81.86h0l108.17-60.35a137.48,137.48,0,0,1-158.56,144ZM533.92,175.86c-2.38-30.78-6-62-10.85-92.88l0-.11a70.53,70.53,0,0,0-8.6-23.69A97.9,97.9,0,0,0,478.39,23.1a70.52,70.52,0,0,0-23.74-8.62l-.1,0C423.82,9.65,392.57,6,361.67,3.6S299.51,0,268.76,0s-62,1.21-92.9,3.6S113.69,9.65,83,14.46l-.12,0a71,71,0,0,0-23.68,8.59A97.92,97.92,0,0,0,23.1,59.14a70.39,70.39,0,0,0-8.62,23.73l0,.11C9.65,113.71,6,145,3.6,175.86S0,238,0,268.76s1.21,62.09,3.6,92.91,6.05,62.06,10.86,92.87l0,.11a70.46,70.46,0,0,0,8.59,23.69,97.9,97.9,0,0,0,36.06,36.08,70.38,70.38,0,0,0,23.74,8.63l.11,0c24.31,3.8,48.92,6.87,73.4,9.17V516.56c-23.67-2.26-47.44-5.24-70.94-8.91A54.91,54.91,0,0,1,67,500.91a82.37,82.37,0,0,1-30.37-30.39,54.81,54.81,0,0,1-6.71-18.45c-4.75-30.39-8.35-61.22-10.71-91.61s-3.55-61.27-3.55-91.7,1.19-61.19,3.55-91.7,6-61.3,10.71-91.61A55,55,0,0,1,36.61,67,82.49,82.49,0,0,1,67,36.59a55.67,55.67,0,0,1,18.46-6.71c30.29-4.75,61.11-8.35,91.61-10.71s61.38-3.55,91.7-3.55,61.2,1.19,91.7,3.55,61.31,6,91.61,10.71a54.94,54.94,0,0,1,18.49,6.73A82.42,82.42,0,0,1,500.94,67a55.14,55.14,0,0,1,6.71,18.43c4.75,30.44,8.35,61.27,10.7,91.63s3.56,61.25,3.56,91.69-1.2,61.21-3.56,91.7-6,61.27-10.7,91.62a55,55,0,0,1-6.74,18.48,82.4,82.4,0,0,1-30.39,30.38,55.11,55.11,0,0,1-18.44,6.71c-25.48,4-51.23,7.13-76.76,9.44l4.4,15.28c24.9-2.32,50-5.42,74.82-9.3l.11,0a70.32,70.32,0,0,0,23.69-8.6,97.82,97.82,0,0,0,36.08-36.06,70.6,70.6,0,0,0,8.63-23.74l0-.1c4.81-30.77,8.47-62,10.85-92.88s3.6-62.15,3.6-92.91S536.31,206.66,533.92,175.86ZM140.41,423.32V114.21l-74.16,24,6,18.59,48.61-15.73V423.32Z"/><path class="cls-1" d="M34.52,673.57v-5.21a13.21,13.21,0,0,0-.68-3.68,11,11,0,0,0-1.37-2.82,30.6,30.6,0,0,0-2-2.78c-1.71-2.05-3.42-4-5.13-5.72s-3.5-3.55-5.3-5.3-3.63-3.64-5.51-5.65-3.85-4.27-5.9-6.71a15.45,15.45,0,0,1-4-8.12A68.54,68.54,0,0,1,4,617.45v-21.2Q4,573,25.8,573c7.87,0,13.38,1.93,16.59,5.73a26.62,26.62,0,0,1,4.78,17.48V621.9H35.08V598a17.6,17.6,0,0,0-1.8-8.55,7.42,7.42,0,0,0-3.08-2.63,7.27,7.27,0,0,0-4-.61c-6,0-9,3.37-9,10.08v20.82a23.31,23.31,0,0,0,.6,6.45,12.77,12.77,0,0,0,2.48,4.28,106.3,106.3,0,0,0,10.26,11.58,123.08,123.08,0,0,1,10.85,11.41,22.87,22.87,0,0,1,5,9.19,56,56,0,0,1,1.2,13.17v20.13a25.92,25.92,0,0,1-5.05,17.09,20.93,20.93,0,0,1-16.84,6,21.23,21.23,0,0,1-9-1.14A21,21,0,0,1,9,710.37a25.29,25.29,0,0,1-5.22-17.09V663.36H16.27v28a17.31,17.31,0,0,0,2,8.85,7.41,7.41,0,0,0,7.05,3.42,8.59,8.59,0,0,0,7.1-2.65,11.85,11.85,0,0,0,2.13-7.74Zm61.34-73.34a13.86,13.86,0,0,0-2.57-9.32,11,11,0,0,0-4-2.41,10.88,10.88,0,0,0-4.6-.58H75.85v47.74h9.07a11,11,0,0,0,8.54-2.9,13.29,13.29,0,0,0,2.74-9.41V600ZM62.73,715V574.58h22A24.26,24.26,0,0,1,103,580.74a27,27,0,0,1,5.9,19.27v23c0,8.89-1.92,15.3-5.81,19.28a24.71,24.71,0,0,1-8.5,4.84,24.41,24.41,0,0,1-9.71,1.14h-9.1V715ZM147,679.47q-2.26-18.08-4.28-35.9t-4.27-36.08q-2.22,18.25-4.53,36.08t-4.7,35.9ZM151.59,715l-3.07-23.51h-21L124.41,715H111.59l19.32-140.37h15.3L164.46,715Zm54.46-51.51h11.79v29A28.18,28.18,0,0,1,213,710.63a19.26,19.26,0,0,1-15.77,5.69q-22.39,0-22.4-23.73V597.28q0-24.24,22.4-24.24,20.52,0,20.52,23.9v24.87H206.05v-24.7a14.31,14.31,0,0,0-1.93-8.29,7.82,7.82,0,0,0-3.11-2.18,7.94,7.94,0,0,0-3.77-.47c-6.2,0-9.32,3.67-9.32,10.94v95.53c0,7.39,3.12,11.07,9.32,11.07a7.94,7.94,0,0,0,6.84-2.74,14.56,14.56,0,0,0,2-8.33ZM233,715V574.58h37.14V587.7H245.88v49.16H263V650h-17.1v52.19H271V715H232.89Zm110.57-35.48q-2.26-18.08-4.27-35.9T335,607.49q-2.27,18.25-4.53,36.08t-4.7,35.9ZM348.21,715l-3.08-23.51h-21L321,715H308.2l19.32-140.37h15.3L361.12,715ZM407.32,600a14,14,0,0,0-2.57-9.31,10.88,10.88,0,0,0-3.95-2.41,11,11,0,0,0-4.59-.59h-8.89v48h9.06a11.06,11.06,0,0,0,8.54-2.9,13.5,13.5,0,0,0,2.74-9.41V600ZM374,715V574.58h22a24.22,24.22,0,0,1,18.25,6.16A27,27,0,0,1,420.18,600v23c0,8.89-2,15.3-5.85,19.28a24.71,24.71,0,0,1-8.5,4.84,24.41,24.41,0,0,1-9.71,1.14H387V715ZM466.47,600a14.1,14.1,0,0,0-2.56-9.31,10.83,10.83,0,0,0-4-2.41,11,11,0,0,0-4.59-.59h-8.89v48h9.06a11.06,11.06,0,0,0,8.55-2.9,13.49,13.49,0,0,0,2.73-9.41V600ZM433.31,715V574.58h22a24.26,24.26,0,0,1,18.26,6.16A27.05,27.05,0,0,1,479.6,600v23c0,8.89-2,15.3-5.86,19.28a24.71,24.71,0,0,1-8.5,4.84,24.39,24.39,0,0,1-9.71,1.14h-9.1V715Zm88.34-41.38v-5.21a15.41,15.41,0,0,0-.68-3.68,12.06,12.06,0,0,0-1.37-2.82,30.6,30.6,0,0,0-2.05-2.78c-1.71-2.05-3.42-4-5.13-5.72s-3.5-3.55-5.3-5.3-3.72-3.72-5.56-5.65-3.84-4.27-5.89-6.71a15.72,15.72,0,0,1-4-8.12,68.54,68.54,0,0,1-.6-10.13v-21.2q0-23.21,21.84-23.21c7.87,0,13.38,1.93,16.59,5.73a26.62,26.62,0,0,1,4.78,17.48V621.9H522.17V598a17.71,17.71,0,0,0-1.8-8.55,7.42,7.42,0,0,0-3.08-2.63,7.3,7.3,0,0,0-4-.61q-9,0-9.06,10.08v20.82a25.38,25.38,0,0,0,.59,6.45,14.43,14.43,0,0,0,2.48,4.28,101.53,101.53,0,0,0,10.35,11.58,123.08,123.08,0,0,1,10.85,11.41,22.87,22.87,0,0,1,5,9.19,56,56,0,0,1,1.2,13.17v20.13a25.92,25.92,0,0,1-5,17.09,26.53,26.53,0,0,1-33.46,0,25.29,25.29,0,0,1-5.22-17.09V663.36h12.44v28a17.78,17.78,0,0,0,2,8.85,7.52,7.52,0,0,0,7.09,3.42,8.59,8.59,0,0,0,7.1-2.65,12.1,12.1,0,0,0,2.13-7.74Z"/><path d="M22.41,735.63a19.87,19.87,0,0,1,7.12,1.18,20,20,0,0,1,5.94,3.53l-4.83,5.75a16,16,0,0,0-3.78-2.23,10.64,10.64,0,0,0-4-.74A8,8,0,0,0,16,746.77q-2.48,3.66-2.48,11.27T16,769.18a8.08,8.08,0,0,0,7,3.59,10.25,10.25,0,0,0,4.27-.86,25.76,25.76,0,0,0,4.14-2.6L36,775.13a19.36,19.36,0,0,1-5.88,4,18.07,18.07,0,0,1-7.55,1.55A20,20,0,0,1,12.19,778a17.66,17.66,0,0,1-6.87-7.68A28.77,28.77,0,0,1,2.91,758,27.28,27.28,0,0,1,5.38,746a18.05,18.05,0,0,1,6.94-7.68A19.32,19.32,0,0,1,22.41,735.63Z"/><path d="M90,779.58V761.2H77.08v18.38H66.93v-42.9H77.08v16.59H90V736.68h10.15v42.9Z"/><path d="M157.19,779.58,155,770.36H142.45l-2.16,9.22H129.76l12.94-42.9H155L168,779.58Zm-13-16.59h9l-4.51-18.94Z"/><path d="M207.69,736.68v34.86h16.72l-1.06,8H197.54v-42.9Z"/><path d="M265.86,736.68v34.86h16.72l-1.06,8H255.71v-42.9Z"/><path d="M340.19,736.68l-1.05,7.25H324V754.2h13.18v7.12H324v11h16.15v7.3H313.88v-42.9Z"/><path d="M406,779.58H393l-12.38-33.24q.62,4.89.93,8.67t.37,8.85v15.72h-9v-42.9h12.63L398.22,770a100.79,100.79,0,0,1-1.36-16V736.68H406Z"/><path d="M459,735.63a21,21,0,0,1,14.3,5.26l-5.13,5.39a17.45,17.45,0,0,0-4.27-2.48,11.6,11.6,0,0,0-4.46-.8,9.08,9.08,0,0,0-7.62,3.77q-2.83,3.72-2.84,11.33,0,8.24,2.16,11.7a7.44,7.44,0,0,0,6.75,3.41,11.89,11.89,0,0,0,5.82-1.43v-9.72h-5.57l-1-7.18h16.4v21.24a27.81,27.81,0,0,1-7.36,3.34,28.79,28.79,0,0,1-8.05,1.18q-9.78,0-14.74-5.7t-5-16.84A25.86,25.86,0,0,1,441.06,746a18.78,18.78,0,0,1,7.37-7.68A21.06,21.06,0,0,1,459,735.63Z"/><path d="M533,736.68,532,743.93h-15.1V754.2h13.18v7.12H516.87v11H533v7.3H506.72v-42.9Z"/><path class="cls-2" d="M220.09,552.16H206.71l-12.8-34.36q.65,5.06,1,8.92t.35,9.19v16.25h-9.35V507.81H199l13.12,34.43a104.2,104.2,0,0,1-1.41-16.51V507.81h9.41Z"/><path class="cls-2" d="M258.1,552.16l-2.3-9.53H242.87l-2.24,9.53H229.75l13.38-44.35h12.74l13.37,44.35ZM244.66,535H254l-4.67-19.58Z"/><path class="cls-2" d="M301.85,508.13a20,20,0,0,1,6.69,4.29l-4.87,5.7A15.08,15.08,0,0,0,294,514.4a7.54,7.54,0,0,0-4.36,1.12,3.73,3.73,0,0,0-1.6,3.24,3.87,3.87,0,0,0,.71,2.4,6.75,6.75,0,0,0,2.49,1.76,52.29,52.29,0,0,0,5.38,2q6.78,2.18,10,5.34c2.14,2.12,3.2,5.11,3.2,9a12.86,12.86,0,0,1-2.11,7.32,13.72,13.72,0,0,1-6.08,4.93,23.14,23.14,0,0,1-9.41,1.76,25,25,0,0,1-9.63-1.73,23,23,0,0,1-7.2-4.6l5.31-5.83a19.44,19.44,0,0,0,5.28,3.27,15.94,15.94,0,0,0,5.92,1.08A8.32,8.32,0,0,0,297,544a4.76,4.76,0,0,0,1.88-4,5.12,5.12,0,0,0-.7-2.78,6.09,6.09,0,0,0-2.43-2,34.5,34.5,0,0,0-5-1.92q-7.35-2.24-10.46-5.5a12.37,12.37,0,0,1-1-15,13.09,13.09,0,0,1,5.69-4.48,20.83,20.83,0,0,1,8.26-1.57A24.21,24.21,0,0,1,301.85,508.13Z"/><path class="cls-2" d="M345,552.16l-2.3-9.53H329.72l-2.24,9.53H316.6L330,507.81h12.73l13.38,44.35ZM331.51,535h9.35l-4.67-19.58Z"/></g></g></svg>